<svg  xmlns="http://www.w3.org/2000/svg" xmlns:xlink="http://www.w3.org/1999/xlink" width="66px" height="56px"><defs><filter filterUnits="userSpaceOnUse" id="Filter_0" x="0px" y="0px" width="66px" height="56px"  >    <feOffset in="SourceAlpha" dx="0" dy="0" />    <feGaussianBlur result="blurOut" stdDeviation="2.449" />    <feFlood flood-color="rgb(0, 0, 0)" result="floodOut" />    <feComposite operator="atop" in="floodOut" in2="blurOut" />    <feComponentTransfer><feFuncA type="linear" slope="0.3"/></feComponentTransfer>    <feMerge>    <feMergeNode/>    <feMergeNode in="SourceGraphic"/>  </feMerge></filter></defs><g filter="url(#Filter_0)"><path fill-rule="evenodd"  fill="rgb(255, 255, 255)" d="M54.719,49.249 L10.867,49.249 C8.073,49.249 5.807,46.983 5.807,44.187 L5.807,17.187 C5.807,14.391 8.073,12.123 10.867,12.123 C10.867,12.123 11.718,12.123 17.545,12.123 C19.140,12.123 22.543,5.374 24.325,5.374 C28.695,5.374 36.838,5.374 41.212,5.374 C42.996,5.374 46.401,12.123 47.999,12.123 C53.847,12.123 54.719,12.123 54.719,12.123 C57.513,12.123 59.779,14.391 59.779,17.187 L59.779,44.187 C59.779,46.983 57.513,49.249 54.719,49.249 ZM32.794,20.543 C28.125,20.543 24.341,24.329 24.341,28.999 C24.341,33.669 28.125,37.456 32.794,37.456 C37.461,37.456 41.245,33.669 41.245,28.999 C41.245,24.329 37.461,20.543 32.794,20.543 ZM48.813,15.500 C47.415,15.500 46.281,16.633 46.281,18.031 C46.281,19.429 47.415,20.562 48.813,20.562 C50.210,20.562 51.344,19.429 51.344,18.031 C51.344,16.633 50.210,15.500 48.813,15.500 Z"/></g></svg>