<svg  xmlns="http://www.w3.org/2000/svg" xmlns:xlink="http://www.w3.org/1999/xlink" width="38px" height="64px"><defs><filter id="Filter_0">    <feFlood flood-color="rgb(82, 141, 255)" flood-opacity="1" result="floodOut" />    <feComposite operator="atop" in="floodOut" in2="SourceGraphic" result="compOut" />    <feBlend mode="normal" in="compOut" in2="SourceGraphic" /></filter></defs><g filter="url(#Filter_0)"><path fill-rule="evenodd"  fill="rgb(255, 255, 255)" d="M26.540,3.741 C26.540,1.005 24.594,0.066 23.284,0.000 C22.020,-0.064 20.374,0.629 19.672,1.677 L5.801,22.025 C3.199,26.090 0.000,29.921 0.000,32.059 C0.000,35.740 2.072,37.706 5.700,37.706 L15.200,37.706 C16.081,37.706 16.935,37.676 16.935,37.676 C16.935,37.676 11.460,55.529 11.460,60.024 C11.460,63.517 13.391,63.934 14.701,64.000 C15.965,64.064 17.270,63.371 17.972,62.323 L30.759,43.267 C33.990,39.235 38.000,33.371 38.000,32.000 C38.000,28.881 35.448,26.353 32.300,26.353 L20.688,26.353 C20.869,26.353 26.132,6.938 26.540,3.741 ZM23.629,5.613 C23.629,4.236 23.274,3.942 22.237,3.942 C21.202,3.942 20.945,4.811 20.370,5.671 L9.156,23.697 C8.520,24.645 3.800,30.725 3.800,31.765 C3.800,32.804 4.651,33.941 5.700,33.941 L9.500,33.941 L15.200,33.941 L18.594,33.941 C19.797,33.941 20.900,34.274 20.900,35.824 C20.900,36.863 20.860,37.710 20.860,37.710 L13.956,58.388 C13.956,59.764 14.370,60.058 15.407,60.058 C16.443,60.058 16.699,59.189 17.274,58.329 L28.666,41.009 C29.302,40.061 34.200,33.040 34.200,32.000 C34.200,30.960 33.349,30.118 32.300,30.118 L28.500,30.118 L22.800,30.118 L19.171,30.118 C18.286,30.147 17.069,30.024 17.069,28.268 C17.069,25.789 17.086,26.264 17.086,26.264 L23.629,5.613 Z"/></g></svg>