<svg  xmlns="http://www.w3.org/2000/svg" xmlns:xlink="http://www.w3.org/1999/xlink" width="33px" height="44px"><defs><filter id="Filter_0">    <feFlood flood-color="rgb(82, 141, 255)" flood-opacity="1" result="floodOut" />    <feComposite operator="atop" in="floodOut" in2="SourceGraphic" result="compOut" />    <feBlend mode="normal" in="compOut" in2="SourceGraphic" /></filter></defs><g filter="url(#Filter_0)"><path fill-rule="evenodd"  fill="rgb(253, 76, 157)" d="M16.391,43.835 C13.778,43.849 0.678,23.705 0.678,16.964 C0.678,8.059 7.712,0.840 16.391,0.840 C25.068,0.840 32.103,8.059 32.103,16.964 C32.103,23.615 18.962,43.849 16.391,43.835 ZM16.391,3.528 C9.159,3.528 3.297,9.543 3.297,16.964 C3.297,22.581 14.214,39.816 16.391,39.805 C18.533,39.816 29.484,22.506 29.484,16.964 C29.484,9.543 23.622,3.528 16.391,3.528 ZM16.391,23.682 C12.775,23.682 9.844,20.674 9.844,16.964 C9.844,13.253 12.775,10.245 16.391,10.245 C20.006,10.245 22.937,13.253 22.937,16.964 C22.937,20.674 20.006,23.682 16.391,23.682 ZM16.391,12.933 C14.222,12.933 12.463,14.737 12.463,16.964 C12.463,19.190 14.222,20.994 16.391,20.994 C18.560,20.994 20.319,19.190 20.319,16.964 C20.319,14.737 18.560,12.933 16.391,12.933 Z"/></g></svg>