<svg  xmlns="http://www.w3.org/2000/svg" xmlns:xlink="http://www.w3.org/1999/xlink" width="36px" height="40px"><defs><filter id="Filter_0">    <feFlood flood-color="rgb(129, 129, 129)" flood-opacity="1" result="floodOut" />    <feComposite operator="atop" in="floodOut" in2="SourceGraphic" result="compOut" />    <feBlend mode="normal" in="compOut" in2="SourceGraphic" /></filter></defs><g filter="url(#Filter_0)"><path fill-rule="evenodd"  fill="rgb(255, 255, 255)" d="M34.885,9.392 L33.210,7.729 L31.535,9.392 L30.418,8.283 L32.094,6.620 L30.418,4.956 L31.535,3.847 L36.002,8.283 L34.885,9.392 ZM15.792,1.569 C15.792,0.703 16.499,0.001 17.371,0.001 C18.243,0.001 18.950,0.703 18.950,1.569 L18.950,3.922 L15.792,3.922 L15.792,1.569 ZM34.742,22.746 C34.742,32.275 26.964,40.001 17.371,40.001 C7.777,40.001 -0.000,32.275 -0.000,22.746 C-0.000,13.216 7.777,5.491 17.371,5.491 C26.964,5.491 34.742,13.216 34.742,22.746 ZM1.579,22.746 C1.579,31.409 8.650,38.432 17.371,38.432 C26.092,38.432 33.163,31.409 33.163,22.746 C33.163,14.083 26.092,7.060 17.371,7.060 C8.650,7.060 1.579,14.083 1.579,22.746 ZM18.160,10.196 L18.160,20.537 C19.078,20.861 19.739,21.722 19.739,22.746 C19.739,23.769 19.078,24.630 18.160,24.954 L18.160,27.452 L16.581,27.452 L16.581,24.954 C15.663,24.630 15.002,23.769 15.002,22.746 C15.002,21.723 15.663,20.861 16.581,20.537 L16.581,10.196 L18.160,10.196 Z"/></g></svg>