<svg  xmlns="http://www.w3.org/2000/svg" xmlns:xlink="http://www.w3.org/1999/xlink" width="67px" height="52px"><defs><filter id="Filter_0">    <feFlood flood-color="rgb(140, 140, 140)" flood-opacity="1" result="floodOut" />    <feComposite operator="atop" in="floodOut" in2="SourceGraphic" result="compOut" />    <feBlend mode="normal" in="compOut" in2="SourceGraphic" /></filter></defs><g filter="url(#Filter_0)"><path fill-rule="evenodd"  fill="rgb(255, 255, 255)" d="M58.625,51.667 L56.531,51.667 L52.344,51.667 L12.563,51.667 L8.375,51.667 C3.750,51.667 0.000,47.966 0.000,43.400 L0.000,18.600 C0.000,14.035 3.750,10.334 8.375,10.334 L18.844,10.334 L18.844,8.267 C18.844,3.701 22.594,0.000 27.219,0.000 L39.781,0.000 C44.407,0.000 48.156,3.701 48.156,8.267 L48.156,10.334 L58.625,10.334 C63.250,10.334 67.000,14.035 67.000,18.600 L67.000,43.400 C67.000,47.966 63.250,51.667 58.625,51.667 ZM43.969,8.267 C43.969,5.984 42.094,4.133 39.781,4.133 L27.219,4.133 C24.906,4.133 23.031,5.984 23.031,8.267 L23.031,10.334 L43.969,10.334 L43.969,8.267 ZM62.813,18.600 C62.813,16.317 60.938,14.467 58.625,14.467 L8.375,14.467 C6.062,14.467 4.188,16.317 4.188,18.600 L4.188,43.400 C4.188,45.683 6.062,47.533 8.375,47.533 L12.563,47.533 L52.344,47.533 L56.531,47.533 L58.625,47.533 C60.938,47.533 62.813,45.683 62.813,43.400 L62.813,18.600 ZM56.531,22.733 C55.375,22.733 54.438,21.808 54.438,20.667 C54.438,19.525 55.375,18.600 56.531,18.600 C57.688,18.600 58.625,19.525 58.625,20.667 C58.625,21.808 57.688,22.733 56.531,22.733 ZM33.500,43.400 C26.562,43.400 20.938,37.848 20.938,31.000 C20.938,24.152 26.562,18.600 33.500,18.600 C40.438,18.600 46.063,24.152 46.063,31.000 C46.063,37.848 40.438,43.400 33.500,43.400 ZM33.500,22.733 C28.875,22.733 25.125,26.434 25.125,31.000 C25.125,35.566 28.875,39.267 33.500,39.267 C38.126,39.267 41.875,35.566 41.875,31.000 C41.875,26.434 38.126,22.733 33.500,22.733 Z"/></g></svg>