<svg  xmlns="http://www.w3.org/2000/svg" xmlns:xlink="http://www.w3.org/1999/xlink" width="64px" height="64px"><defs><filter id="Filter_0">    <feFlood flood-color="rgb(140, 140, 140)" flood-opacity="1" result="floodOut" />    <feComposite operator="atop" in="floodOut" in2="SourceGraphic" result="compOut" />    <feBlend mode="normal" in="compOut" in2="SourceGraphic" /></filter></defs><g filter="url(#Filter_0)"><path fill-rule="evenodd"  fill="rgb(255, 255, 255)" d="M61.539,34.462 L58.960,34.462 C57.788,47.448 47.449,57.781 34.462,58.953 L34.462,61.539 C34.462,62.898 33.360,64.000 32.000,64.000 C30.641,64.000 29.539,62.898 29.539,61.539 L29.539,58.953 C16.551,57.781 6.212,47.448 5.041,34.462 L2.462,34.462 C1.102,34.462 0.000,33.360 0.000,32.000 C0.000,30.641 1.102,29.538 2.462,29.538 L5.041,29.538 C6.213,16.548 16.558,6.214 29.551,5.047 C29.549,5.005 29.539,4.966 29.539,4.923 L29.539,2.462 C29.539,1.102 30.641,0.000 32.000,0.000 C33.360,0.000 34.462,1.102 34.462,2.462 L34.462,4.923 C34.462,4.966 34.451,5.005 34.449,5.047 C47.442,6.213 57.787,16.548 58.960,29.538 L61.539,29.538 C62.898,29.538 64.000,30.641 64.000,32.000 C64.000,33.360 62.898,34.462 61.539,34.462 ZM32.000,9.846 C19.765,9.846 9.846,19.765 9.846,32.000 C9.846,44.235 19.765,54.154 32.000,54.154 C44.235,54.154 54.154,44.235 54.154,32.000 C54.154,19.765 44.235,9.846 32.000,9.846 ZM32.000,46.769 C23.843,46.769 17.231,40.157 17.231,32.000 C17.231,23.843 23.843,17.231 32.000,17.231 C40.157,17.231 46.769,23.843 46.769,32.000 C46.769,40.157 40.157,46.769 32.000,46.769 ZM32.000,22.154 C26.562,22.154 22.154,26.562 22.154,32.000 C22.154,37.438 26.562,41.846 32.000,41.846 C37.438,41.846 41.846,37.438 41.846,32.000 C41.846,26.562 37.438,22.154 32.000,22.154 Z"/></g></svg>