<svg  xmlns="http://www.w3.org/2000/svg" xmlns:xlink="http://www.w3.org/1999/xlink" width="81px" height="81px"><defs><filter id="Filter_0">    <feFlood flood-color="rgb(82, 141, 255)" flood-opacity="1" result="floodOut" />    <feComposite operator="atop" in="floodOut" in2="SourceGraphic" result="compOut" />    <feBlend mode="normal" in="compOut" in2="SourceGraphic" /></filter></defs><g filter="url(#Filter_0)"><path fill-rule="evenodd"  fill="rgb(132, 132, 132)" d="M40.683,80.100 C18.643,80.100 0.775,62.240 0.775,40.205 C0.775,18.172 18.643,0.309 40.683,0.309 C62.726,0.309 80.592,18.172 80.592,40.205 C80.592,62.240 62.726,80.100 40.683,80.100 ZM40.683,5.296 C21.428,5.296 5.764,20.956 5.764,40.205 C5.764,59.454 21.428,75.192 40.683,75.192 C59.938,75.192 75.604,59.454 75.604,40.205 C75.604,20.956 59.938,5.296 40.683,5.296 ZM49.285,48.513 C49.050,48.937 48.689,49.278 48.254,49.488 L24.423,59.380 C24.097,59.539 23.747,59.614 23.400,59.614 C22.784,59.614 22.175,59.371 21.723,58.911 C21.016,58.189 20.850,57.100 21.309,56.201 L32.489,33.665 C32.716,33.221 33.074,32.863 33.515,32.639 L57.926,22.148 C58.843,21.680 59.964,21.864 60.682,22.608 C61.399,23.352 61.547,24.476 61.046,25.380 L49.285,48.513 ZM28.668,52.113 L42.301,46.837 L35.451,38.267 L28.668,52.113 Z"/></g></svg>